:FULLY-SPECIFIED
:FORCE-ALL-JOINTS-BE-3DOF
:DEGREES
951
root 1.23686 15.3307 32.7497 6.72578 -2.99808 364.961
lfemur 5.37879 0.816048 3.06
ltibia 3.27356 0 0
lfoot -29.7627 -14.2735 0
ltoes -31.0625 0 0
rfemur -31.0095 -14.2312 -8.10507
rtibia 48.3111 0 0
rfoot -19.4152 2.93548 0
rtoes -43.0758 0 0
lowerback -2.48131 -0.409405 0.267568
upperback -1.52592 -0.554586 -6.91347
thorax -0.254838 -0.31521 -7.3694
lowerneck -6.79418 0.357527 3.89725
upperneck 1.53643 0.0331515 3.33693
head 1.63059 0.122888 0.387042
lclavicle -1.21038e-14 4.54664e-14 0
lhumerus -59.1402 -44.0871 112.758
lradius 55.5389 0 0
lwrist 25.414 0 0
lhand 40.4636 24.5725 0
lfingers 7.12502 0 0
lthumb 62.7741 35.0351 0
rclavicle -1.21038e-14 4.54664e-14 0
rhumerus 3.54588 -33.962 -5.34618
rradius 29.6974 0 0
rwrist -13.9526 0 0
rhand -38.5321 -49.862 0
rfingers 7.12502 0 0
rthumb -11.5521 -799.513 0
952
root 1.23398 15.3265 32.7436 6.69383 -3.03778 364.941
lfemur 5.4575 0.838624 3.10993
ltibia 3.19597 0 0
lfoot -29.7708 -14.2129 0
ltoes -31.1292 0 0
rfemur -31.0557 -14.2612 -8.06141
rtibia 48.3709 0 0
rfoot -19.4908 2.98436 0
rtoes -43.0479 0 0
lowerback -2.45946 -0.409642 0.278094
upperback -1.50676 -0.55478 -6.88967
thorax -0.247147 -0.314789 -7.34979
lowerneck -6.79113 0.375992 3.94412
upperneck 1.52532 0.0545206 3.33666
head 1.62675 0.133474 0.379778
lclavicle -1.18452e-14 4.39365e-14 0
lhumerus -59.121 -44.1113 112.805
lradius 55.5271 0 0
lwrist 25.4082 0 0
lhand 40.3885 24.5704 0
lfingers 7.12502 0 0
lthumb 62.7111 35.1086 0
rclavicle -1.18452e-14 4.39365e-14 0
rhumerus 3.55062 -33.7502 -5.22358
rradius 29.6575 0 0
rwrist -13.8898 0 0
rhand -38.3645 -49.7379 0
rfingers 7.12502 0 0
rthumb -11.3903 -799.396 0
953
root 1.23082 15.3218 32.737 6.65871 -3.08142 364.919
lfemur 5.54404 0.863446 3.16483
ltibia 3.11065 0 0
lfoot -29.7797 -14.1462 0
ltoes -31.2025 0 0
rfemur -31.1065 -14.2942 -8.0134
rtibia 48.4367 0 0
rfoot -19.5739 3.03812 0
rtoes -43.0171 0 0
lowerback -2.43543 -0.409902 0.289667
upperback -1.48568 -0.554995 -6.8635
thorax -0.238689 -0.314325 -7.32824
lowerneck -6.78778 0.396295 3.99565
upperneck 1.5131 0.0780166 3.33637
head 1.62254 0.145113 0.371792
lclavicle -1.15608e-14 4.22542e-14 0
lhumerus -59.0999 -44.138 112.857
lradius 55.5142 0 0
lwrist 25.4019 0 0
lhand 40.306 24.5681 0
lfingers 7.12502 0 0
lthumb 62.6419 35.1895 0
rclavicle -1.15608e-14 4.22542e-14 0
rhumerus 3.55584 -33.5174 -5.08877
rradius 29.6136 0 0
rwrist -13.8207 0 0
rhand -38.1802 -49.6015 0
rfingers 7.12502 0 0
rthumb -11.2125 -799.267 0
954
root 1.22739 15.3168 32.7298 6.62066 -3.1287 364.895
lfemur 5.6378 0.890336 3.22431
ltibia 3.01823 0 0
lfoot -29.7894 -14.0739 0
ltoes -31.2819 0 0
rfemur -31.1616 -14.3299 -7.9614
rtibia 48.5079 0 0
rfoot -19.664 3.09634 0
rtoes -42.9839 0 0
lowerback -2.40941 -0.410185 0.302204
upperback -1.46286 -0.555227 -6.83514
thorax -0.229527 -0.313822 -7.30489
lowerneck -6.78415 0.418288 4.05148
upperneck 1.49987 0.103469 3.33605
head 1.61797 0.157722 0.363141
lclavicle -1.12528e-14 4.04318e-14 0
lhumerus -59.077 -44.1669 112.914
lradius 55.5002 0 0
lwrist 25.395 0 0
lhand 40.2166 24.5655 0
lfingers 7.12502 0 0
lthumb 62.567 35.2771 0
rclavicle -1.12528e-14 4.04318e-14 0
rhumerus 3.5615 -33.2652 -4.94274
rradius 29.5661 0 0
rwrist -13.7459 0 0
rhand -37.9806 -49.4537 0
rfingers 7.12502 0 0
rthumb -11.0198 -799.127 0
955
root 1.22372 15.3114 32.7221 6.57994 -3.17929 364.87
lfemur 5.73813 0.919114 3.28796
ltibia 2.91932 0 0
lfoot -29.7997 -13.9966 0
ltoes -31.3669 0 0
rfemur -31.2205 -14.3681 -7.90574
rtibia 48.5842 0 0
rfoot -19.7604 3.15866 0
rtoes -42.9483 0 0
lowerback -2.38156 -0.410487 0.315622
upperback -1.43842 -0.555475 -6.8048
thorax -0.219723 -0.313285 -7.2799
lowerneck -6.78027 0.441825 4.11122
upperneck 1.4857 0.130709 3.33571
head 1.61308 0.171216 0.353883
lclavicle -1.09231e-14 3.84815e-14 0
lhumerus -59.0525 -44.1978 112.974
lradius 55.4852 0 0
lwrist 25.3876 0 0
lhand 40.1209 24.5628 0
lfingers 7.12502 0 0
lthumb 62.4868 35.3708 0
rclavicle -1.09231e-14 3.84815e-14 0
rhumerus 3.56755 -32.9952 -4.78646
rradius 29.5152 0 0
rwrist -13.6659 0 0
rhand -37.7669 -49.2955 0
rfingers 7.12502 0 0
rthumb -10.8136 -798.977 0
956
root 1.21983 15.3058 32.7139 6.53681 -3.23289 364.843
lfemur 5.84442 0.949599 3.35539
ltibia 2.81455 0 0
lfoot -29.8107 -13.9147 0
ltoes -31.457 0 0
rfemur -31.283 -14.4085 -7.84679
rtibia 48.665 0 0
rfoot -19.8625 3.22467 0
rtoes -42.9105 0 0
lowerback -2.35206 -0.410807 0.329836
upperback -1.41254 -0.555738 -6.77266
thorax -0.209336 -0.312715 -7.25342
lowerneck -6.77615 0.46676 4.17451
upperneck 1.4707 0.159565 3.33535
head 1.6079 0.18551 0.344075
lclavicle -1.05739e-14 3.64155e-14 0
lhumerus -59.0266 -44.2306 113.038
lradius 55.4693 0 0
lwrist 25.3798 0 0
lhand 40.0195 24.5599 0
lfingers 7.12502 0 0
lthumb 62.4018 35.4701 0
rclavicle -1.05739e-14 3.64155e-14 0
rhumerus 3.57396 -32.7093 -4.6209
rradius 29.4613 0 0
rwrist -13.5811 0 0
rhand -37.5406 -49.128 0
rfingers 7.12502 0 0
rthumb -10.5952 -798.818 0
957
root 1.21575 15.2998 32.7054 6.49151 -3.28918 364.815
lfemur 5.95604 0.981613 3.4262
ltibia 2.70452 0 0
lfoot -29.8222 -13.8287 0
ltoes -31.5516 0 0
rfemur -31.3485 -14.451 -7.78487
rtibia 48.7499 0 0
rfoot -19.9697 3.294 0
rtoes -42.8709 0 0
lowerback -2.32107 -0.411143 0.344762
upperback -1.38537 -0.556015 -6.7389
thorax -0.198429 -0.312117 -7.22562
lowerneck -6.77183 0.492943 4.24098
upperneck 1.45494 0.189867 3.33497
head 1.60246 0.200521 0.333775
lclavicle -1.02072e-14 3.42459e-14 0
lhumerus -58.9994 -44.265 113.105
lradius 55.4527 0 0
lwrist 25.3716 0 0
lhand 39.9131 24.5569 0
lfingers 7.12502 0 0
lthumb 62.3125 35.5743 0
rclavicle -1.02072e-14 3.42459e-14 0
rhumerus 3.58069 -32.409 -4.44705
rradius 29.4048 0 0
rwrist -13.492 0 0
rhand -37.3029 -48.9521 0
rfingers 7.12502 0 0
rthumb -10.3659 -798.652 0
958
root 1.2115 15.2936 32.6965 6.44431 -3.34783 364.786
lfemur 6.07236 1.01497 3.49999
ltibia 2.58986 0 0
lfoot -29.8342 -13.739 0
ltoes -31.6501 0 0
rfemur -31.4169 -14.4953 -7.72035
rtibia 48.8383 0 0
rfoot -20.0814 3.36624 0
rtoes -42.8296 0 0
lowerback -2.28879 -0.411493 0.360316
upperback -1.35704 -0.556303 -6.70372
thorax -0.187062 -0.311494 -7.19665
lowerneck -6.76733 0.52023 4.31024
upperneck 1.43852 0.221446 3.33457
head 1.59679 0.216164 0.323042
lclavicle -9.82498e-15 3.19849e-14 0
lhumerus -58.971 -44.3008 113.175
lradius 55.4353 0 0
lwrist 25.363 0 0
lhand 39.8022 24.5538 0
lfingers 7.12502 0 0
lthumb 62.2195 35.683 0
rclavicle -9.82498e-15 3.19849e-14 0
rhumerus 3.58771 -32.0961 -4.26587
rradius 29.3458 0 0
rwrist -13.3992 0 0
rhand -37.0552 -48.7687 0
rfingers 7.12502 0 0
rthumb -10.1269 -798.478 0
959
root 1.20709 15.2871 32.6872 6.39545 -3.40854 364.756
lfemur 6.19275 1.0495 3.57636
ltibia 2.47118 0 0
lfoot -29.8466 -13.6462 0
ltoes -31.7521 0 0
rfemur -31.4876 -14.5412 -7.65357
rtibia 48.9298 0 0
rfoot -20.197 3.44101 0
rtoes -42.7869 0 0
lowerback -2.25537 -0.411855 0.376416
upperback -1.32773 -0.556601 -6.66731
thorax -0.175297 -0.310849 -7.16666
lowerneck -6.76267 0.548472 4.38192
upperneck 1.42153 0.25413 3.33416
head 1.59093 0.232355 0.311933
lclavicle -9.42941e-15 2.96447e-14 0
lhumerus -58.9416 -44.338 113.248
lradius 55.4173 0 0
lwrist 25.3542 0 0
lhand 39.6873 24.5505 0
lfingers 7.12502 0 0
lthumb 62.1233 35.7955 0
rclavicle -9.42941e-15 2.96447e-14 0
rhumerus 3.59497 -31.7722 -4.07834
rradius 29.2848 0 0
rwrist -13.3031 0 0
rhand -36.7989 -48.5789 0
rfingers 7.12502 0 0
rthumb -9.87947 -798.298 0
960
root 1.20256 15.2805 32.6777 6.34519 -3.47099 364.724
lfemur 6.31659 1.08502 3.65492
ltibia 2.3491 0 0
lfoot -29.8593 -13.5508 0
ltoes -31.8571 0 0
rfemur -31.5603 -14.5883 -7.58488
rtibia 49.0239 0 0
rfoot -20.316 3.51793 0
rtoes -42.743 0 0
lowerback -2.22099 -0.412228 0.392976
upperback -1.29757 -0.556907 -6.62986
thorax -0.163195 -0.310185 -7.13582
lowerneck -6.75787 0.577523 4.45566
upperneck 1.40405 0.287751 3.33374
head 1.58489 0.24901 0.300506
lclavicle -9.02252e-15 2.72376e-14 0
lhumerus -58.9114 -44.3761 113.322
lradius 55.3989 0 0
lwrist 25.3451 0 0
lhand 39.5692 24.5471 0
lfingers 7.12502 0 0
lthumb 62.0243 35.9112 0
rclavicle -9.02252e-15 2.72376e-14 0
rhumerus 3.60244 -31.439 -3.88545
rradius 29.222 0 0
rwrist -13.2043 0 0
rhand -36.5352 -48.3837 0
rfingers 7.12502 0 0
rthumb -9.62499 -798.113 0
